<svg id="Capa_1" enable-background="new 0 0 512 512" height="512" viewBox="0 0 512 512" width="512" xmlns="http://www.w3.org/2000/svg" xmlns:xlink="http://www.w3.org/1999/xlink"><linearGradient id="SVGID_1_" gradientUnits="userSpaceOnUse" x1="256" x2="256" y1="512" y2="0"><stop offset="0" stop-color="#5558ff"/><stop offset="1" stop-color="#00c0ff"/></linearGradient><g><g><path d="m256 0c-140.959 0-256 115.049-256 256 0 140.959 115.049 256 256 256 140.959 0 256-115.049 256-256 0-140.959-115.049-256-256-256zm0 482c-124.617 0-226-101.383-226-226s101.383-226 226-226 226 101.383 226 226-101.383 226-226 226zm0-422c-107.638 0-196 88.353-196 196 0 107.638 88.353 196 196 196 107.638 0 196-88.353 196-196 0-107.638-88.353-196-196-196zm79.952 50.564c41.157 22.716 71.692 62.391 82.127 109.539l-82.127 47.416zm-79.952-20.564c17.4 0 34.228 2.697 50 7.685v94.834l-135.973-78.476c25.092-15.252 54.525-24.043 85.973-24.043zm50 137.16v57.679l-50 28.84-50-28.84v-57.679l50-28.84zm-216 28.84c0-48.387 20.814-92 53.954-122.369l82.046 47.369-135.956 78.494c-.024-1.162-.044-2.326-.044-3.494zm86.048 145.436c-41.157-22.716-71.692-62.391-82.127-109.539l82.127-47.416zm79.952 20.564c-17.4 0-34.228-2.697-50-7.685v-94.834c15.429 8.908 121.594 70.174 135.973 78.476-25.092 15.252-54.525 24.043-85.973 24.043zm112.046-43.631-82.046-47.369 135.956-78.494c.024 1.162.044 2.326.044 3.494 0 48.387-20.814 92-53.954 122.369z" fill="url(#SVGID_1_)"/></g></g></svg>