<svg id="Capa_1" enable-background="new 0 0 512 512" height="60" viewBox="0 0 512 512" width="60" xmlns="http://www.w3.org/2000/svg" xmlns:xlink="http://www.w3.org/1999/xlink"><linearGradient id="SVGID_1_" gradientUnits="userSpaceOnUse" x1="256" x2="256" y1="512" y2="0"><stop offset="0" stop-color="#5558ff"/><stop offset="1" stop-color="#00c0ff"/></linearGradient><g><g><path d="m256 91c-90.981 0-165 74.019-165 165s74.019 165 165 165 165-74.019 165-165-74.019-165-165-165zm0 300c-74.439 0-135-60.561-135-135s60.561-135 135-135 135 60.561 135 135-60.561 135-135 135zm60-210h-120c-8.284 0-15 6.716-15 15v120c0 8.284 6.716 15 15 15h120c8.284 0 15-6.716 15-15v-120c0-8.284-6.716-15-15-15zm-15 120h-90v-90h30v15c0 8.284 6.716 15 15 15s15-6.716 15-15v-15h30zm201.759-88.823-28.904-12.017c-4.997-20.445-13.116-40.194-24.215-58.896l11.218-28.215c2.213-5.565.903-11.914-3.332-16.148l-42.427-42.426c-4.235-4.235-10.585-5.545-16.148-3.332l-28.216 11.217c-18.703-11.099-38.453-19.219-58.897-24.216l-12.017-28.903c-2.326-5.595-7.791-9.241-13.85-9.241h-59.944c-6.06 0-11.524 3.646-13.851 9.242l-12.015 28.902c-20.448 4.998-40.198 13.117-58.897 24.216l-28.214-11.218c-5.564-2.213-11.913-.903-16.148 3.332l-42.427 42.427c-4.235 4.235-5.545 10.583-3.332 16.149l11.218 28.214c-11.097 18.698-19.219 38.45-24.216 58.897l-28.903 12.015c-5.596 2.326-9.242 7.791-9.242 13.851v59.944c0 6.06 3.646 11.524 9.241 13.851l28.903 12.017c4.997 20.445 13.118 40.195 24.216 58.897l-11.217 28.214c-2.213 5.565-.903 11.914 3.332 16.149l42.427 42.427c4.235 4.235 10.583 5.544 16.148 3.332l28.215-11.218c18.702 11.098 38.451 19.218 58.896 24.215l12.018 28.904c2.326 5.595 7.791 9.241 13.851 9.241h59.943c6.06 0 11.524-3.646 13.851-9.242l12.017-28.903c20.446-4.998 40.198-13.12 58.896-24.216l28.216 11.219c5.563 2.213 11.913.903 16.148-3.332l42.427-42.427c4.235-4.235 5.545-10.583 3.332-16.149l-11.219-28.216c11.097-18.697 19.218-38.449 24.216-58.896l28.903-12.016c5.596-2.326 9.242-7.791 9.242-13.851v-59.944c-.002-6.058-3.648-11.523-9.243-13.85zm-20.759 63.786-26.839 11.158c-4.597 1.912-7.946 5.979-8.939 10.858-4.494 22.075-13.222 43.343-25.938 63.212-2.604 4.068-3.089 9.14-1.305 13.628l10.355 26.044-28.47 28.47-26.045-10.355c-4.488-1.784-9.561-1.299-13.628 1.305-19.87 12.717-41.138 21.444-63.212 25.938-4.879.993-8.947 4.343-10.858 8.94l-11.158 26.839h-39.927l-11.159-26.84c-1.912-4.598-5.98-7.947-10.859-8.94-22.069-4.491-43.337-13.218-63.213-25.936-4.068-2.603-9.141-3.088-13.627-1.304l-26.042 10.354-28.47-28.47 10.354-26.043c1.784-4.487 1.299-9.559-1.304-13.627-12.719-19.876-21.446-41.144-25.938-63.214-.993-4.879-4.342-8.947-8.94-10.859l-26.838-11.159v-39.927l26.837-11.157c4.598-1.911 7.948-5.98 8.941-10.859 4.493-22.074 13.219-43.342 25.937-63.213 2.604-4.068 3.089-9.14 1.305-13.628l-10.354-26.043 28.47-28.47 26.042 10.354c4.488 1.784 9.56 1.299 13.628-1.305 19.872-12.718 41.14-21.444 63.213-25.937 4.879-.993 8.948-4.343 10.859-8.941l11.158-26.836h39.927l11.159 26.838c1.911 4.598 5.98 7.947 10.859 8.94 22.068 4.491 43.337 13.218 63.214 25.938 4.068 2.603 9.14 3.088 13.627 1.304l26.042-10.354 28.471 28.47-10.354 26.043c-1.784 4.487-1.299 9.559 1.304 13.627 12.718 19.875 21.444 41.142 25.937 63.213.993 4.879 4.342 8.947 8.939 10.859l26.839 11.158z" fill="url(#SVGID_1_)"/></g></g></svg>