<svg id="Capa_1" enable-background="new 0 0 512 512" height="60" viewBox="0 0 512 512" width="60" xmlns="http://www.w3.org/2000/svg" xmlns:xlink="http://www.w3.org/1999/xlink"><linearGradient id="SVGID_1_" gradientUnits="userSpaceOnUse" x1="256" x2="256" y1="512" y2="0"><stop offset="0" stop-color="#5558ff"/><stop offset="1" stop-color="#00c0ff"/></linearGradient><g><g><path d="m301 286h-30v-30c0-8.284-6.716-15-15-15s-15 6.716-15 15v45c0 8.284 6.716 15 15 15h45c8.284 0 15-6.716 15-15s-6.716-15-15-15zm165.001-171.212-42.422-42.422c-2.813-2.813-6.628-4.393-10.606-4.393-3.979 0-7.793 1.58-10.606 4.393l-44.854 44.854c-16.523-9.163-34.4-16.165-53.254-20.616 7.372-9.966 11.741-22.283 11.741-35.604 0-32.894-26.584-61-60-61-33.424 0-60 28.112-60 61 0 13.321 4.369 25.638 11.742 35.605-18.854 4.451-36.731 11.453-53.254 20.616l-44.854-44.854c-5.857-5.858-15.355-5.858-21.213 0l-42.422 42.422c-5.858 5.858-5.858 15.355 0 21.213l40.786 40.787c-25.621 34.81-40.785 77.77-40.785 124.211 0 115.813 94.014 211 210 211 115.826 0 210-95.014 210-211 0-46.441-15.164-89.401-40.786-124.212l40.786-40.787c5.859-5.858 5.859-15.355.001-21.213zm-210.001-84.788c16.262 0 30 14.196 30 31 0 16.542-13.458 30-30 30s-30-13.458-30-30c0-16.804 13.738-31 30-31zm-178.181 95.395 21.208-21.209 29.812 29.811c-7.979 6.09-15.509 12.736-22.534 19.883zm358.181 175.605c0 99.804-80.748 181-180 181s-180-81.196-180-181c0-99.252 80.748-180 180-180s180 80.748 180 180zm-30.304-147.12c-7.025-7.147-14.556-13.793-22.534-19.883l29.811-29.811 21.208 21.209zm-149.696-2.88c-82.639 0-150 67.25-150 150 0 82.858 67.114 151 150 151 82.345 0 150-67.736 150-151 0-82.639-67.25-150-150-150zm105 164.99 14.078.01c-2.731 22.175-11.464 42.569-24.49 59.375l-9.736-9.736c-5.857-5.858-15.355-5.858-21.213 0s-5.858 15.355 0 21.213l9.784 9.784c-16.575 12.97-36.595 21.664-58.423 24.42v-14.056c0-8.284-6.716-15-15-15s-15 6.716-15 15v14.056c-21.828-2.757-41.848-11.451-58.424-24.419l9.784-9.784c5.858-5.858 5.858-15.355 0-21.213-5.857-5.858-15.355-5.858-21.213 0l-9.736 9.736c-13.03-16.811-21.755-37.169-24.49-59.375h14.079c8.284 0 15-6.716 15-15s-6.716-15-15-15h-14.064c2.74-21.879 11.396-41.944 24.308-58.543l9.903 9.903c5.857 5.858 15.355 5.858 21.213 0s5.858-15.355 0-21.213l-9.903-9.903c16.599-12.912 36.663-21.568 58.543-24.308v14.063c0 8.284 6.716 15 15 15s15-6.716 15-15v-14.064c21.879 2.74 41.944 11.396 58.543 24.308l-9.903 9.903c-5.858 5.858-5.858 15.355 0 21.213 5.857 5.857 15.354 5.859 21.213 0l9.903-9.903c12.912 16.599 21.568 36.663 24.308 58.543h-14.064c-8.284 0-15 6.716-15 15s6.716 14.99 15 14.99z" fill="url(#SVGID_1_)"/></g></g></svg>